<?xml version="1.0" encoding="UTF-8" standalone="no"?>
<svg
   xmlns:dc="http://purl.org/dc/elements/1.1/"
   xmlns:cc="http://creativecommons.org/ns#"
   xmlns:rdf="http://www.w3.org/1999/02/22-rdf-syntax-ns#"
   xmlns:svg="http://www.w3.org/2000/svg"
   xmlns="http://www.w3.org/2000/svg"
   xmlns:sodipodi="http://sodipodi.sourceforge.net/DTD/sodipodi-0.dtd"
   xmlns:inkscape="http://www.inkscape.org/namespaces/inkscape"
   width="602.57318"
   height="606.0426"
   id="svg2"
   version="1.1"
   inkscape:version="0.48.5 r10040"
   sodipodi:docname="stain-icon.svg">
  <defs
     id="defs20" />
  <sodipodi:namedview
     pagecolor="#ffffff"
     bordercolor="#666666"
     borderopacity="1"
     objecttolerance="10"
     gridtolerance="10"
     guidetolerance="10"
     inkscape:pageopacity="0"
     inkscape:pageshadow="2"
     inkscape:window-width="1600"
     inkscape:window-height="878"
     id="namedview18"
     showgrid="false"
     fit-margin-top="0"
     fit-margin-left="0"
     fit-margin-right="0"
     fit-margin-bottom="0"
     inkscape:zoom="1.2685914"
     inkscape:cx="404.77229"
     inkscape:cy="372.84716"
     inkscape:window-x="-8"
     inkscape:window-y="-8"
     inkscape:window-maximized="1"
     inkscape:current-layer="layer1" />
  <title
     id="title4">Mi splash</title>
  <metadata
     id="metadata7">image/svg+xmlink splash with dropsSergio Luiz Araujo Silvadropsplashink<rdf:RDF>
  <cc:Work
     rdf:about="">
    <dc:format>image/svg+xml</dc:format>
    <dc:type
       rdf:resource="http://purl.org/dc/dcmitype/StillImage" />
  </cc:Work>
</rdf:RDF>
</metadata>
  <g
     id="g7"
     transform="translate(-45.342043,-242.74925)">
    <title
       id="title9">Layer 1</title>
    <g
       id="layer1">
      <path
         id="path2854"
         d="m 440.89597,691.21057 c -24.16159,16.71118 49.5513,56.55993 22.58541,68.5747 -29.60797,13.19195 -41.02206,-57.98955 -73.14785,-51.37975 -53.16898,10.93951 41.46166,133.0811 -19.98173,140.14622 -59.47452,6.83863 27.42344,-134.66881 -20.83767,-135.79643 -18.71479,-12.96537 -28.87154,-14.04271 -51.11621,-13.96295 -88.54454,7.70757 -57.57565,126.11338 -116.94488,95.06064 -71.35428,-37.32135 104.53909,-66.58225 69.14489,-136.27835 -62.15958,-21.32381 -35.35454,-38.21318 -32.7771,-55.2133 1.10769,-78.31491 -168.641836,7.34599 -172.378988,-43.76766 -4.476166,-61.22083 142.999818,21.31377 164.760048,-42.06128 21.84803,-63.63077 -27.69669,-92.40047 -21.02716,-104.3053 2.71661,-9.19497 75.41022,43.00418 98.88109,4.03651 55.60223,-38.40612 -92.50809,-148.67018 -39.98105,-170.77572 57.97253,-24.39722 54.08993,121.86755 86.90775,135.60416 36.16204,39.0503 51.89308,-14.9858 72.18427,10.83118 27.45684,55.10146 32.35774,-3.80762 67.64358,36.49491 22.82013,18.6908 75.47668,-110.66348 111.23376,-69.00756 37.1369,43.26315 -68.25859,40.94394 -74.2362,91.67181 -19.65702,44.21884 3.27988,32.99586 5.93396,54.18417 14.81811,65.89603 111.24835,-48.37301 122.73858,0.6503 18.66004,79.61377 -74.88916,5.38794 -102.9447,52.08771 -25.98273,43.24945 117.32295,53.04355 110.11611,81.72763 -13.00208,51.74915 -110.46694,-100.70761 -130.2532,-26.15982 4.28619,79.66152 -39.66884,60.22649 -76.50271,77.63818 z"
         inkscape:connector-curvature="0"
         style="fill:#ff1929;fill-opacity:1"
         sodipodi:nodetypes="csssccsccssccscccsccssscc" />
      <path
         id="path2859"
         d="m 146.25135,378.48559 a 13.88009,13.88009 0 1 1 -27.76018,0 13.88009,13.88009 0 1 1 27.76018,0 z"
         inkscape:connector-curvature="0"
         style="fill:#ff1929;fill-opacity:1" />
      <path
         d="m 613.04785,445.35266 a 13.880127,13.880127 0 1 1 -27.76025,0 13.880127,13.880127 0 1 1 27.76025,0 z"
         id="path2857"
         inkscape:connector-curvature="0"
         style="fill:#ff1929;fill-opacity:1" />
      <path
         id="path2861"
         d="m 434.9808,347.81852 c 0,0 10.79577,-115.80188 43.50344,-102.7486 31.93406,12.74463 -43.50344,102.7486 -43.50344,102.7486 z"
         inkscape:connector-curvature="0"
         style="fill:#ff1929;fill-opacity:1" />
      <path
         d="m 547.11702,682.05738 c 0,0 112.10928,30.95329 93.51815,60.862 -18.15182,29.20167 -93.51815,-60.862 -93.51815,-60.862 z"
         id="path2864"
         inkscape:connector-curvature="0"
         style="fill:#ff1929;fill-opacity:1" />
      <path
         id="path2866"
         d="m 153.96651,654.64867 c 0,0 -89.518068,74.25037 -103.415705,41.89258 C 36.981713,664.94872 153.96651,654.64867 153.96651,654.64867 z"
         inkscape:connector-curvature="0"
         style="fill:#ff1929;fill-opacity:1" />
    </g>
  </g>
</svg>
